<svg xmlns="http://www.w3.org/2000/svg" version="1.1" xmlns:xlink="http://www.w3.org/1999/xlink" xmlns:svgjs="http://svgjs.dev/svgjs" width="128" height="128" viewBox="0 0 128 128"><g transform="matrix(0.8046875,0,0,0.8046875,12.604685907778517,1.435546875)"><svg viewBox="0 0 128 155" data-background-color="#ffffff" preserveAspectRatio="xMidYMid meet" height="155" width="128" xmlns="http://www.w3.org/2000/svg" xmlns:xlink="http://www.w3.org/1999/xlink"><g id="tight-bounds" transform="matrix(1,0,0,1,-0.13009510869562746,0.25)"><svg viewBox="0 0 128.26019021739128 154.5" height="154.5" width="128.26019021739128"><g><svg viewBox="0 0 128.26019021739128 154.5" height="154.5" width="128.26019021739128"><g><svg viewBox="0 0 128.26019021739128 154.5" height="154.5" width="128.26019021739128"><g id="textblocktransform"><svg viewBox="0 0 128.26019021739128 154.5" height="154.5" width="128.26019021739128" id="textblock"><g><svg viewBox="0 0 128.26019021739128 154.5" height="154.5" width="128.26019021739128"><g transform="matrix(1,0,0,1,0,0)"><svg width="128.26019021739128" viewBox="1.55 -36.7 30.55 36.800000000000004" height="154.5" data-palette-color="#0c93b1"><g class="wordmark-text-0" data-fill-palette-color="primary" id="text-0"><path d="M18.8 0.1L18.8 0.1Q13.9 0.1 9.98-1.93 6.05-3.95 3.8-7.95 1.55-11.95 1.55-17.8L1.55-17.8Q1.55-23.65 3.83-27.9 6.1-32.15 10.08-34.43 14.05-36.7 19.15-36.7L19.15-36.7Q25.05-36.7 28.2-35.05 31.35-33.4 31.35-30.15L31.35-30.15Q31.35-27.65 30-26.03 28.65-24.4 26.3-24.4L26.3-24.4Q24.3-24.4 22.43-24.93 20.55-25.45 18.05-25.45L18.05-25.45Q14.85-25.45 13-23.6 11.15-21.75 11.15-18.75L11.15-18.75Q11.15-15.8 13-13.83 14.85-11.85 18.05-11.85L18.05-11.85Q19.75-11.85 21.18-12.13 22.6-12.4 23.98-12.7 25.35-13 26.95-13L26.95-13Q29.6-13 30.85-11.28 32.1-9.55 32.1-7L32.1-7Q32.1-4.45 30.25-2.88 28.4-1.3 25.38-0.6 22.35 0.1 18.8 0.1Z" fill="#0c93b1" data-fill-palette-color="primary"></path></g></svg></g></svg></g></svg></g></svg></g></svg></g><defs></defs></svg><rect width="128.26019021739128" height="154.5" fill="none" stroke="none" visibility="hidden"></rect></g></svg></g></svg>