<svg xmlns="http://www.w3.org/2000/svg" version="1.1" xmlns:xlink="http://www.w3.org/1999/xlink" xmlns:svgjs="http://svgjs.dev/svgjs" width="2000" height="499" viewBox="0 0 2000 499"><g transform="matrix(1,0,0,1,-1.2121212121212466,-0.555759629504081)"><svg viewBox="0 0 396 99" data-background-color="#ffffff" preserveAspectRatio="xMidYMid meet" height="499" width="2000" xmlns="http://www.w3.org/2000/svg" xmlns:xlink="http://www.w3.org/1999/xlink"><g id="tight-bounds" transform="matrix(1,0,0,1,0.2400000000000091,0.11026092849880342)"><svg viewBox="0 0 395.52 98.77947814300236" height="98.77947814300236" width="395.52"><g><svg viewBox="0 0 395.52 98.77947814300236" height="98.77947814300236" width="395.52"><g><svg viewBox="0 0 395.52 98.77947814300236" height="98.77947814300236" width="395.52"><g id="textblocktransform"><svg viewBox="0 0 395.52 98.77947814300236" height="98.77947814300236" width="395.52" id="textblock"><g><svg viewBox="0 0 395.52 98.77947814300236" height="98.77947814300236" width="395.52"><g transform="matrix(1,0,0,1,0,0)"><svg width="395.52" viewBox="1.55 -36.7 147.54 36.85" height="98.77947814300236" data-palette-color="#0c93b1"><g class="wordmark-text-0" data-fill-palette-color="primary" id="text-0"><path d="M18.8 0.1L18.8 0.1Q13.9 0.1 9.98-1.93 6.05-3.95 3.8-7.95 1.55-11.95 1.55-17.8L1.55-17.8Q1.55-23.65 3.83-27.9 6.1-32.15 10.08-34.43 14.05-36.7 19.15-36.7L19.15-36.7Q25.05-36.7 28.2-35.05 31.35-33.4 31.35-30.15L31.35-30.15Q31.35-27.65 30-26.03 28.65-24.4 26.3-24.4L26.3-24.4Q24.3-24.4 22.43-24.93 20.55-25.45 18.05-25.45L18.05-25.45Q14.85-25.45 13-23.6 11.15-21.75 11.15-18.75L11.15-18.75Q11.15-15.8 13-13.83 14.85-11.85 18.05-11.85L18.05-11.85Q19.75-11.85 21.18-12.13 22.6-12.4 23.98-12.7 25.35-13 26.95-13L26.95-13Q29.6-13 30.85-11.28 32.1-9.55 32.1-7L32.1-7Q32.1-4.45 30.25-2.88 28.4-1.3 25.38-0.6 22.35 0.1 18.8 0.1ZM50.85 0.15L50.85 0.15Q45.5 0.15 41.8-2.2 38.1-4.55 36.2-8.7 34.3-12.85 34.3-18.25L34.3-18.25Q34.3-23.6 36.2-27.78 38.1-31.95 41.8-34.33 45.5-36.7 50.85-36.7L50.85-36.7Q56.2-36.7 59.87-34.33 63.55-31.95 65.45-27.78 67.35-23.6 67.35-18.25L67.35-18.25Q67.35-12.85 65.45-8.7 63.55-4.55 59.87-2.2 56.2 0.15 50.85 0.15ZM40.6-19.05L40.6-19.05Q40.6-17.5 41.35-16.13 42.1-14.75 44.3-13.93 46.5-13.1 50.85-13.1L50.85-13.1Q55.2-13.1 57.37-13.93 59.55-14.75 60.3-16.13 61.05-17.5 61.05-19.05L61.05-19.05Q61.05-20.65 60.3-21.93 59.55-23.2 57.37-23.98 55.2-24.75 50.85-24.75L50.85-24.75Q46.5-24.75 44.3-23.98 42.1-23.2 41.35-21.93 40.6-20.65 40.6-19.05ZM87.05 0.15L87.05 0.15Q83.7 0.15 81.52-1.15 79.35-2.45 77.97-4.9 76.6-7.35 75.5-10.85L75.5-10.85 69.9-28.8Q69.1-31.3 70.02-33.18 70.95-35.05 73.35-35.75L73.35-35.75Q75.55-36.4 77.35-35.48 79.15-34.55 79.8-32.35L79.8-32.35 85.25-15.05Q86.1-12.25 87.42-11.33 88.75-10.4 90.3-10.9L90.3-10.9Q91.9-11.35 92.35-12.73 92.8-14.1 92.1-16.9L92.1-16.9Q90.95-21.9 90.55-24.75 90.15-27.6 90.15-29.25L90.15-29.25Q90.15-32.05 91.67-34.08 93.2-36.1 96.4-36.1L96.4-36.1Q99.55-36.1 100.97-34.08 102.4-32.05 102.4-29.25L102.4-29.25Q102.4-27.6 101.95-25.85 101.5-24.1 100.9-22.25L100.9-22.25 96.45-8.8Q95.55-6.1 94.47-4.08 93.4-2.05 91.67-0.95 89.95 0.15 87.05 0.15ZM110.34 0.1L110.34 0.1Q108.04 0.1 106.59-1.3 105.14-2.7 105.14-4.85L105.14-4.85 105.14-31.3Q105.14-33.5 106.57-35 107.99-36.5 110.34-36.5L110.34-36.5Q112.84-36.5 114.27-35.02 115.69-33.55 115.69-31.4L115.69-31.4 115.69-4.85Q115.69-2.7 114.17-1.3 112.64 0.1 110.34 0.1ZM123.44-36.4L131.94-36.4Q137.89-36.4 141.67-34.18 145.44-31.95 147.27-27.88 149.09-23.8 149.09-18.2L149.09-18.2Q149.09-8.8 145.04-4.4 140.99 0 132.64 0L132.64 0 130.44 0Q127.99 0 125.89-0.5 123.79-1 122.19-2.33 120.59-3.65 119.69-6.05 118.79-8.45 118.79-12.25L118.79-12.25Q118.79-15.8 119.77-18.4 120.74-21 122.09-22.55 123.44-24.1 124.54-24.45L124.54-24.45 124.29-25.4 123.44-25.4Q121.14-25.4 119.82-26.88 118.49-28.35 118.44-30.85L118.44-30.85Q118.39-33.35 119.77-34.88 121.14-36.4 123.44-36.4L123.44-36.4ZM128.34-24.55L128.34-12.9Q128.34-11.85 128.82-11.45 129.29-11.05 130.24-11.05L130.24-11.05 132.94-11.05Q135.49-11.05 136.89-12.15 138.29-13.25 138.87-14.98 139.44-16.7 139.44-18.65L139.44-18.65Q139.44-20.6 138.87-22.4 138.29-24.2 136.89-25.35 135.49-26.5 132.94-26.5L132.94-26.5 130.24-26.5Q129.29-26.5 128.82-26.08 128.34-25.65 128.34-24.55L128.34-24.55Z" fill="#0c93b1" data-fill-palette-color="primary"></path></g></svg></g></svg></g></svg></g></svg></g></svg></g><defs></defs></svg><rect width="395.52" height="98.77947814300236" fill="none" stroke="none" visibility="hidden"></rect></g></svg></g></svg>